<svg width="986" height="987" viewBox="0 0 986 987" fill="none" xmlns="http://www.w3.org/2000/svg">
<path d="M465.858 0.79048C367.191 6.79048 275.191 40.3905 197.191 98.7905C142.658 139.457 93.1908 195.99 62.5242 252.524C59.3242 258.39 55.3242 265.857 53.5908 269.057C40.3908 293.057 23.4575 338.257 15.1908 371.724C-8.54249 466.791 -4.40916 564.791 27.1908 655.857C80.6575 809.991 210.124 929.857 367.324 970.524C410.924 981.857 447.724 986.524 493.058 986.524C581.458 986.524 661.991 965.191 739.191 921.457C822.791 873.991 894.391 797.057 937.191 708.657C952.791 676.391 961.858 651.591 970.658 617.191C981.991 572.657 985.858 541.724 985.858 493.191C985.858 454.924 984.924 443.057 979.058 409.191C948.391 229.99 821.058 82.2572 647.858 25.0571C589.858 5.99048 524.124 -2.80952 465.858 0.79048ZM541.591 52.3905C554.524 57.7238 560.791 77.1905 549.591 77.1905C547.058 77.1905 545.858 75.8572 543.724 70.7905C540.658 63.4571 538.124 61.1905 532.791 61.1905C527.191 61.1905 524.258 63.3238 520.924 69.5905C518.124 74.6572 517.858 77.0572 517.858 94.1238C517.858 112.257 517.991 113.057 521.058 116.39C523.591 119.057 525.591 119.857 530.124 119.857C536.124 119.857 538.658 118.124 543.858 110.524C545.458 108.257 546.658 107.724 549.058 108.524C551.724 109.324 552.124 110.124 551.458 113.99C549.324 126.924 534.658 133.99 521.458 128.524C509.191 123.324 505.991 116.524 505.991 95.8572C505.991 79.3238 509.058 66.3905 514.791 59.1905C520.791 51.5905 532.524 48.5238 541.591 52.3905ZM403.324 57.7238C405.324 59.1905 406.524 62.3905 407.724 69.4572C408.658 74.7905 410.658 83.9905 412.124 89.8572C413.591 95.7238 415.058 105.857 415.324 112.524C415.991 123.324 415.724 125.057 412.924 129.724C405.324 142.657 384.791 145.057 374.524 134.39C369.858 129.457 366.924 121.857 361.191 99.0572C353.991 70.3905 354.258 65.1905 362.658 65.1905C367.324 65.1905 368.924 67.3238 370.391 75.4572C373.591 91.9905 379.991 117.59 382.124 122.124C387.991 134.657 403.458 129.59 402.791 115.324C402.658 109.857 397.324 83.8572 394.524 74.5238C392.124 66.5238 392.524 59.9905 395.324 57.8571C398.524 55.4571 399.991 55.4571 403.324 57.7238ZM614.258 67.4572C615.058 68.7905 615.191 85.4572 614.791 106.257C614.124 143.457 613.724 146.524 608.791 146.524C604.791 146.39 603.191 143.724 602.524 135.59L601.858 127.324L593.858 124.924C589.458 123.59 585.191 122.524 584.391 122.524C583.591 122.524 581.324 125.59 579.324 129.324C575.324 136.524 570.258 139.724 567.058 137.057C565.991 136.257 565.191 134.524 565.191 133.19C565.191 131.857 572.524 118.39 581.324 103.057C604.524 63.1905 603.058 65.1905 608.524 65.1905C611.591 65.1905 613.458 65.9905 614.258 67.4572ZM331.324 80.9238C332.124 81.4572 337.191 96.2572 342.391 113.857C347.591 131.457 352.524 147.19 353.191 148.924C355.058 153.324 352.658 157.19 348.124 157.19C345.058 157.057 342.924 154.79 332.524 139.19C325.991 129.324 320.391 121.457 320.258 121.59C320.124 121.857 322.524 131.724 325.591 143.724C330.924 164.79 331.058 165.59 328.524 167.324C324.391 170.39 322.924 169.59 318.124 161.457C315.591 157.324 306.924 143.19 298.658 130.124C290.524 117.057 283.858 104.924 283.858 103.324C283.858 98.9238 286.924 96.6572 290.391 98.3905C291.858 99.1905 297.058 106.79 301.991 115.19C306.924 123.59 311.324 130.257 311.591 129.99C311.858 129.724 309.858 122.124 307.191 113.057C304.524 104.124 302.524 95.3238 302.791 93.4572C303.191 89.5905 306.524 87.0572 309.591 88.2572C310.791 88.6572 316.791 96.9238 323.058 106.39C329.324 115.99 334.791 123.857 335.191 123.857C335.724 123.857 332.391 114.39 325.324 95.8572C322.124 87.5905 321.724 81.7238 324.258 80.7905C326.658 79.7238 329.724 79.7238 331.324 80.9238ZM682.924 90.5238C701.591 99.4572 704.524 101.724 703.058 105.857C701.458 109.857 697.191 109.324 682.124 102.657C673.724 98.9238 666.658 95.8572 666.258 95.8572C665.191 95.8572 657.191 112.924 657.191 115.057C657.191 115.857 662.658 119.324 669.458 122.524C682.658 129.057 685.458 131.724 683.058 135.457C680.524 139.457 675.324 138.924 663.191 133.19C656.658 130.257 651.058 128.124 650.658 128.524C650.258 128.924 647.191 134.79 643.858 141.59C638.791 152.124 637.324 153.857 634.258 154.257C631.858 154.524 630.258 153.857 629.324 152.124C628.258 149.99 630.791 143.59 642.658 117.724C656.658 87.5905 660.124 81.1905 662.658 81.1905C663.324 81.1905 672.391 85.3238 682.924 90.5238ZM748.524 128.657C757.858 135.057 765.724 141.057 766.124 142.257C767.191 144.79 764.924 148.39 761.991 148.924C760.658 149.19 753.458 145.457 745.858 140.657C738.124 135.857 731.324 131.857 730.658 131.857C729.458 131.857 718.524 147.857 718.524 149.59C718.524 150.124 722.524 153.19 727.591 156.39C732.524 159.724 737.991 163.857 739.724 165.724C742.524 168.657 742.791 169.59 741.458 172.524C739.058 177.59 735.191 176.657 722.391 167.857L710.791 159.99L705.191 168.124C702.258 172.524 699.991 176.924 700.391 177.857C700.658 178.79 706.791 184.124 713.724 189.724C723.724 197.59 726.524 200.657 726.524 203.19C726.524 207.057 721.591 208.924 717.591 206.657C710.791 202.924 685.858 182.79 685.458 180.79C685.191 179.457 690.258 170.524 696.658 160.79C724.924 117.99 725.591 117.19 728.658 117.19C730.391 117.19 739.324 122.39 748.524 128.657ZM269.324 130.79C294.791 167.724 297.724 173.857 294.658 183.724C291.858 193.457 281.591 201.19 271.458 201.324C262.258 201.59 255.591 197.99 248.124 188.79C229.191 165.324 219.858 151.59 219.858 147.19C219.858 136.79 227.991 137.724 236.258 149.19C239.324 153.457 245.724 162.524 250.524 169.324C255.324 175.99 261.191 183.19 263.591 185.324C271.191 192.124 280.524 189.324 281.991 179.857C282.791 174.124 279.591 168.39 263.191 145.857C248.658 125.99 247.991 124.657 251.191 121.19C252.524 119.724 255.191 118.524 257.191 118.524C260.258 118.524 262.124 120.39 269.324 130.79ZM527.191 166.657C606.124 175.324 686.924 218.257 736.924 278.124C777.991 327.057 801.591 377.857 811.991 439.191C815.591 459.724 816.791 502.791 814.658 523.991C806.791 598.657 775.724 665.591 723.858 719.057C673.324 771.057 611.858 802.924 537.591 815.457C517.058 818.924 462.924 818.924 441.324 815.457C357.591 802.124 286.658 761.591 234.391 696.924C199.591 653.991 177.458 605.057 166.258 545.857C163.591 531.591 163.324 525.724 163.191 492.524C163.191 452.657 164.124 443.324 171.324 413.857C190.791 334.524 237.591 267.19 305.191 220.924C316.924 212.924 320.791 210.657 338.791 200.79C356.124 191.324 388.391 179.324 412.524 173.324C448.124 164.657 487.858 162.257 527.191 166.657ZM890.524 304.257C893.058 305.857 896.258 309.324 897.724 311.857C901.191 317.724 901.324 328.524 898.124 333.19C895.058 337.59 895.324 339.857 898.924 339.857C903.991 339.99 912.658 344.657 915.858 349.057C919.724 354.524 919.858 364.524 916.258 370.79C914.924 373.19 911.058 376.924 907.858 379.057C902.524 382.657 901.058 383.057 891.191 382.924C873.324 382.657 848.524 371.857 845.058 362.79C840.658 351.19 852.791 317.057 864.791 307.324C873.724 300.124 882.924 299.057 890.524 304.257ZM113.458 318.924C116.658 321.324 121.058 325.99 123.324 329.324C128.658 337.324 134.258 354.524 135.324 366.39C136.258 375.724 136.258 375.724 131.724 379.99C122.124 388.924 102.924 396.124 87.9908 396.124C77.8575 396.257 73.4575 394.391 66.6575 387.324C62.6575 383.19 61.9908 381.457 61.5908 374.924C60.9242 364.657 63.9908 359.59 73.5908 355.19C77.3242 353.324 81.3242 351.857 82.2575 351.857C83.0575 351.857 83.8575 351.724 83.8575 351.457C83.7242 351.324 82.6575 347.99 81.3242 344.124C75.8575 328.257 84.9242 314.524 100.791 314.524C106.524 314.524 108.658 315.324 113.458 318.924ZM129.858 535.857C131.724 538.791 132.524 544.924 132.524 554.524C132.391 566.124 129.591 572.924 121.991 579.457C111.724 588.524 88.6575 593.324 75.3242 589.057C65.0575 585.991 60.5242 582.257 56.3908 573.457C51.9908 564.124 50.2575 548.391 53.4575 547.191C55.9908 546.257 121.991 534.924 126.124 534.657C127.724 534.524 129.458 535.191 129.858 535.857ZM875.991 541.991C878.524 545.057 875.991 548.124 869.058 550.524C859.991 553.724 857.324 561.724 862.524 570.124C867.858 579.057 875.458 576.924 882.391 564.657C889.858 551.591 901.058 544.257 910.924 545.724C922.391 547.591 929.191 556.791 929.191 570.257C929.191 576.791 928.524 579.057 925.324 583.457C921.324 588.924 911.991 594.524 906.791 594.524C905.191 594.524 903.324 593.324 902.524 591.857C900.524 588.257 902.791 584.391 907.458 583.191C918.258 580.524 922.124 568.524 914.658 561.057C907.991 554.524 901.324 556.657 895.058 567.591C890.391 575.857 885.591 580.924 879.591 583.991C870.658 588.524 861.591 586.257 855.058 577.724C851.591 573.324 851.191 571.724 851.191 563.057C851.191 555.324 851.724 552.657 853.991 549.591C860.258 541.057 871.858 537.057 875.991 541.991ZM850.258 600.524C851.591 603.191 851.458 604.924 849.858 608.791C848.791 611.324 847.858 614.257 847.858 615.191C847.858 616.124 858.524 621.057 872.258 626.391C904.658 638.924 908.524 640.924 908.524 645.191C908.524 647.591 907.724 648.657 905.591 648.924C903.991 649.191 891.991 645.324 878.924 640.391C865.858 635.457 852.391 630.391 849.058 629.191L842.924 626.924L839.724 635.057C836.791 642.524 836.124 643.191 832.524 643.191C829.191 643.191 828.391 642.524 828.124 639.857C827.724 636.391 838.524 605.457 841.991 600.124C844.524 596.257 848.391 596.391 850.258 600.524ZM145.458 608.791C148.124 611.991 153.191 624.391 153.191 627.724C153.191 634.257 147.724 637.191 143.858 632.524C142.924 631.457 141.458 630.524 140.658 630.524C139.858 630.524 127.591 634.524 113.591 639.457C88.9242 648.124 87.8575 648.524 88.1242 651.857C88.5242 656.524 86.9242 658.524 83.1908 658.524C80.6575 658.524 79.1908 657.191 77.1908 653.191C73.1908 645.457 70.6575 634.391 72.1242 631.457C73.7242 628.257 77.9908 628.657 80.3908 632.124L82.5242 635.057L107.458 626.524C136.524 616.791 137.324 616.391 136.391 613.991C135.324 611.191 138.258 606.524 141.058 606.524C142.391 606.524 144.391 607.591 145.458 608.791ZM170.524 669.191C176.391 673.324 182.524 683.324 182.524 688.657C182.524 700.257 172.924 710.657 167.991 704.657C166.658 703.191 167.191 701.324 169.991 695.991C173.058 689.857 173.324 688.657 171.858 685.057C168.258 676.391 157.458 672.924 151.724 678.657C149.191 681.191 149.058 682.257 149.991 689.057C153.191 709.857 150.258 721.591 140.258 727.457C132.924 731.724 125.458 731.191 117.324 725.857C109.991 720.924 106.124 713.457 106.258 704.391C106.391 693.324 112.791 684.524 119.058 686.924C121.724 687.991 121.858 693.191 119.191 696.657C118.124 697.991 117.324 701.591 117.191 704.524C117.191 715.324 128.258 722.124 136.124 715.991C139.858 712.924 140.258 709.191 137.991 691.191C137.191 684.257 137.458 682.391 140.124 677.191C144.524 668.524 150.791 664.791 159.324 665.457C163.591 665.857 167.724 667.191 170.524 669.191ZM842.124 669.457C848.124 673.057 851.724 678.524 852.658 685.591L853.458 691.457L868.658 692.391C885.324 693.324 887.324 693.857 888.391 696.657C890.658 702.657 885.324 704.124 864.658 703.057L849.858 702.257L846.791 707.991C845.191 711.057 843.991 713.724 844.124 713.857C844.391 713.991 849.858 717.057 856.258 720.524C868.391 727.057 870.658 729.324 868.258 733.057C866.258 736.257 861.724 736.391 857.591 733.457C855.458 732.124 845.191 726.124 834.524 720.257C806.924 704.924 797.858 699.324 797.458 696.657C796.791 693.457 807.191 677.991 813.591 672.524C822.258 665.057 833.058 663.857 842.124 669.457ZM202.524 715.191C205.458 718.657 202.791 723.057 192.524 731.591C181.191 741.057 181.191 740.124 191.724 751.724L198.258 759.057L202.791 755.591C205.191 753.591 209.591 749.857 212.524 747.324C219.724 740.791 223.591 739.857 226.791 743.857C228.924 746.524 229.058 747.191 227.458 749.724C226.391 751.324 213.724 762.257 199.324 774.124C173.191 795.724 167.591 799.057 165.724 793.857C163.991 789.591 166.924 785.591 177.191 777.191C183.058 772.391 187.858 768.124 187.858 767.724C187.858 767.324 186.791 765.724 185.591 764.257C184.258 762.791 180.658 758.791 177.591 755.191L171.858 748.924L160.524 758.524C151.191 766.391 148.391 767.991 145.858 767.324C142.124 766.391 139.324 761.991 140.791 759.324C141.858 757.591 156.124 745.324 177.724 727.857C183.458 723.191 189.724 717.991 191.591 716.257C195.324 712.791 200.124 712.257 202.524 715.191ZM791.591 714.791C794.524 717.724 793.324 720.391 783.191 733.191C777.724 740.124 773.191 746.524 773.191 747.324C773.191 748.924 787.058 761.191 789.058 761.191C789.858 761.191 793.591 757.457 797.324 752.791C806.391 741.857 808.658 739.857 811.591 739.857C814.658 739.857 817.191 742.391 817.191 745.457C817.191 746.657 813.324 752.524 808.524 758.391C803.724 764.257 799.858 769.591 799.858 770.124C799.991 771.591 813.858 782.524 815.591 782.524C816.391 782.524 822.258 777.057 828.658 770.524C835.058 763.857 841.324 758.524 842.658 758.524C846.258 758.524 848.524 762.257 847.058 765.857C845.191 770.791 819.724 797.191 816.924 797.191C815.591 797.191 807.991 791.991 800.124 785.457C792.258 779.057 783.991 772.257 781.724 770.524C760.924 753.857 758.524 751.591 758.524 748.524C758.524 743.591 783.991 713.191 788.124 713.191C789.191 713.191 790.658 713.857 791.591 714.791ZM258.258 774.124C275.058 787.457 277.724 791.324 272.124 794.391C269.191 795.991 266.658 794.524 251.858 783.457C246.391 779.191 241.324 775.857 240.524 775.857C239.058 775.857 228.391 789.057 227.191 792.124C226.791 793.057 229.058 795.591 232.258 797.857C241.191 804.124 249.191 811.991 249.191 814.524C249.191 817.991 245.724 820.257 241.991 819.324C240.124 818.924 234.258 814.924 228.924 810.524L219.191 802.657L213.458 808.924C203.858 819.457 203.724 818.257 217.724 830.791C224.658 836.924 230.658 842.657 231.058 843.591C232.391 846.524 229.324 850.524 225.991 850.524C221.191 850.524 191.458 824.257 192.124 820.657C192.524 819.057 202.524 805.057 214.524 789.457C230.791 768.524 237.191 761.191 239.324 761.191C240.791 761.191 249.324 766.924 258.258 774.124ZM751.858 768.657C757.724 771.057 760.391 774.391 759.058 777.857C758.391 779.591 757.058 779.857 753.324 779.324C738.524 776.657 738.791 776.657 734.524 781.191C727.324 788.791 729.991 799.857 739.058 799.857C741.324 799.857 747.058 798.657 751.591 797.191C765.324 792.924 775.858 794.257 783.458 801.457C795.191 812.391 786.524 835.724 769.324 839.857C757.458 842.657 744.658 836.924 747.324 829.857C748.124 827.991 749.191 827.724 753.724 828.524C765.458 830.391 769.591 829.724 773.458 825.324C778.124 820.124 778.391 813.991 774.258 809.591C770.658 805.724 765.191 805.591 752.924 809.324C742.658 812.524 734.258 812.124 728.391 808.391C724.124 805.457 719.858 797.191 719.858 791.724C719.858 782.257 728.658 770.657 738.124 767.857C743.724 766.124 745.991 766.257 751.858 768.657ZM313.858 811.191C321.191 815.324 325.724 823.724 324.791 830.791C323.191 843.191 315.591 842.657 314.524 830.124C314.124 826.124 313.591 822.524 313.191 822.124C305.858 816.124 297.458 815.457 292.524 820.524C290.658 822.257 289.191 824.791 289.191 826.124C289.191 827.457 291.858 831.991 295.191 836.257C303.991 847.324 306.658 853.324 306.924 861.457C307.191 874.524 298.924 882.524 285.191 882.524C273.858 882.524 266.258 877.191 261.458 866.124C259.191 860.924 259.458 852.391 261.991 849.991C266.391 845.457 270.524 848.524 270.524 856.257C270.524 868.391 280.391 875.057 290.524 869.857C297.991 865.991 297.458 858.124 289.191 848.524C279.591 837.457 276.658 828.124 280.258 819.591C282.258 814.791 289.058 808.657 293.858 807.457C298.658 806.124 308.391 807.991 313.858 811.191ZM700.924 810.791C705.191 813.324 707.591 818.391 705.858 821.057C704.524 823.324 699.858 822.791 696.258 819.857C689.324 814.391 678.391 818.524 675.991 827.457C674.791 831.724 674.924 833.057 677.058 835.857C679.458 839.191 679.858 839.191 694.791 838.657C713.458 838.124 720.124 840.391 725.991 849.057C728.924 853.724 729.458 855.591 728.924 861.191C727.724 873.857 717.058 883.857 704.791 883.857C691.324 883.857 680.524 874.791 687.324 869.057C689.191 867.591 690.258 867.724 694.658 870.257C701.858 874.391 707.991 874.124 713.058 869.324C717.458 865.191 718.524 859.457 715.858 854.524C713.724 850.524 706.791 848.924 698.658 850.524C687.991 852.524 682.658 852.124 676.124 849.057C668.791 845.457 665.191 839.724 665.191 831.857C665.191 821.324 671.991 812.524 683.324 808.524C689.324 806.391 694.658 807.057 700.924 810.791ZM643.058 831.324C644.924 836.257 642.391 838.257 626.524 844.657C617.724 848.124 610.524 851.191 610.524 851.591C610.524 854.257 618.124 871.857 619.191 871.857C619.991 871.857 625.591 869.991 631.591 867.857C643.991 863.324 648.124 862.924 650.524 865.857C654.658 870.924 646.658 876.257 624.924 883.057C622.791 883.724 622.924 884.524 626.124 893.857C628.658 900.791 630.391 903.857 631.858 903.857C633.058 903.857 640.791 901.724 648.924 899.191C660.658 895.457 664.391 894.791 666.524 895.857C669.858 897.591 669.858 900.124 666.924 903.457C664.524 906.124 632.124 917.191 626.658 917.191C623.324 917.191 623.058 916.657 611.058 885.191C606.258 872.391 601.058 858.657 599.458 854.791C595.991 845.857 596.791 844.257 607.324 839.991C633.991 829.191 641.591 827.457 643.058 831.324ZM436.658 855.991C438.391 857.591 440.391 861.057 441.191 863.724C443.324 871.324 440.791 877.324 432.524 884.924L425.324 891.591L428.924 901.724C432.391 911.191 432.791 911.724 434.791 909.591C435.991 908.257 437.324 905.857 437.724 904.124C439.191 899.857 443.191 897.991 445.724 900.657C446.924 901.724 447.858 903.057 447.858 903.324C447.858 905.191 443.458 913.857 440.658 917.591C438.124 920.924 437.324 923.324 437.591 927.857C437.858 933.324 437.591 933.857 434.658 934.257C432.524 934.657 430.658 933.724 429.191 931.857C427.324 929.457 426.524 929.191 423.324 930.391C416.258 933.191 405.591 931.057 400.524 925.991C392.924 918.524 394.791 904.391 404.658 893.324C410.391 886.924 410.658 886.257 409.324 882.257C405.858 872.391 409.858 859.324 417.724 854.257C423.191 850.924 432.124 851.724 436.658 855.991ZM567.591 857.191C578.524 862.124 583.191 868.257 587.058 883.457C590.258 895.724 590.124 907.457 586.658 915.324C582.791 923.991 579.191 927.591 570.658 931.457C562.658 935.057 547.458 937.057 545.991 934.791C544.524 932.391 535.858 875.191 535.458 865.591L535.191 856.524L542.524 854.924C551.591 852.924 559.591 853.724 567.591 857.191Z" fill="black"/>
<path d="M599.058 92.7906C596.391 97.8572 593.058 103.857 591.724 106.257C590.258 108.657 589.191 111.191 589.191 111.857C589.191 112.924 602.258 116.524 603.058 115.724C603.591 115.057 604.791 83.8572 604.391 83.8572C604.124 83.8572 601.724 87.8572 599.058 92.7906Z" fill="black"/>
<path d="M633.191 271.324C614.391 276.39 590.524 289.99 575.858 303.724L564.524 314.524L548.524 311.857C519.991 307.19 503.991 306.124 471.458 306.924C441.591 307.59 430.391 308.79 405.591 313.857L394.524 316.124L386.924 309.457C359.991 286.257 321.591 270.79 307.191 277.457C297.058 282.124 289.191 315.19 289.191 352.79C289.324 363.724 289.858 375.057 290.391 378.257C291.324 383.19 290.924 385.057 287.591 392.257C276.924 414.257 273.724 431.057 274.924 458.39C277.058 509.19 302.391 548.39 339.324 557.59C352.124 560.924 400.391 562.524 487.858 562.79C585.591 563.19 625.591 561.19 644.124 555.057C659.591 549.99 676.658 532.39 687.858 509.99C698.258 489.057 700.391 479.724 700.391 451.857C700.391 430.257 700.124 427.724 696.658 416.524C692.658 403.057 683.591 385.324 675.858 375.19L670.791 368.524L671.458 353.457C672.791 327.057 667.724 297.99 658.658 280.124C653.058 269.057 648.124 267.324 633.191 271.324ZM603.858 411.19C613.058 415.857 621.191 429.724 621.191 440.524C621.191 458.124 607.458 470.124 588.924 468.924C576.391 467.99 569.191 463.59 564.391 453.724C557.458 439.59 558.791 429.59 568.791 419.057C576.124 411.59 585.724 407.59 593.724 408.524C597.324 408.924 601.858 410.124 603.858 411.19ZM391.858 417.19C400.258 421.457 407.858 433.59 407.858 442.39C407.858 449.324 402.791 460.79 397.591 465.324C383.991 477.19 366.258 476.39 354.658 463.057C349.324 457.057 347.724 452.924 347.591 445.057C347.591 438.124 351.591 427.724 356.258 422.657C357.858 420.924 362.258 417.99 365.858 416.257C373.724 412.524 383.324 412.79 391.858 417.19ZM449.191 455.19C449.191 459.324 454.258 464.79 459.058 465.99C466.791 467.857 473.991 464.39 479.858 455.857C482.524 451.99 486.391 453.057 489.458 458.524C495.991 470.124 516.524 468.124 519.058 455.724C519.724 452.39 520.391 451.724 522.791 452.124C525.191 452.39 525.991 453.457 526.258 457.324C527.058 466.657 516.924 474.524 503.991 474.524C496.791 474.524 491.458 472.79 487.058 468.79C484.124 466.39 483.991 466.39 478.524 469.99C471.191 474.924 458.924 475.857 451.858 472.257C446.258 469.324 441.191 462.124 441.191 457.19C441.191 452.79 442.124 451.857 446.124 451.857C448.524 451.857 449.191 452.524 449.191 455.19Z" fill="black"/>
<path d="M618.924 573.191C611.324 573.591 605.058 574.257 604.658 574.657C604.258 575.057 593.724 701.457 592.791 717.857L592.524 723.191L605.191 722.791C615.324 722.391 618.258 721.857 619.991 719.991C622.124 717.457 622.124 717.191 631.191 627.191C633.724 602.257 636.258 579.591 636.658 576.791C637.324 572.524 637.058 571.857 634.924 572.124C633.591 572.124 626.391 572.657 618.924 573.191Z" fill="black"/>
<path d="M341.858 574.524C341.724 574.924 343.191 585.324 345.324 597.857C361.858 693.991 366.791 720.657 368.524 723.457C370.524 726.391 371.324 726.524 385.191 726.524C393.191 726.524 399.991 726.124 400.258 725.457C400.658 724.924 400.391 721.457 399.724 717.857C399.058 714.124 393.724 680.657 387.858 643.324C381.991 605.991 377.058 575.191 376.791 575.057C376.124 574.257 342.258 573.857 341.858 574.524Z" fill="black"/>
<path d="M391.191 577.457C391.458 578.391 392.524 585.191 393.724 592.524C394.791 599.857 397.324 615.457 399.191 627.191C400.924 638.924 405.191 665.857 408.524 687.057C411.858 708.391 414.791 725.991 415.058 726.257C415.458 726.524 425.324 726.257 437.058 725.724C457.724 724.791 458.524 724.657 458.524 721.991C458.524 720.391 457.324 703.324 455.858 683.857C454.391 664.391 452.391 636.257 451.191 621.191C450.124 606.124 448.791 589.857 448.391 584.791L447.458 575.857H419.058C396.924 575.857 390.658 576.257 391.191 577.457Z" fill="black"/>
<path d="M461.724 582.791C462.258 586.657 463.724 605.991 465.191 625.857C466.658 645.591 468.791 673.591 469.858 687.857C470.924 702.124 471.991 716.391 472.124 719.457L472.258 725.191H496.391C509.724 725.191 521.191 724.657 521.991 724.124C523.458 723.191 529.058 579.191 527.724 577.991C527.458 577.724 512.258 577.191 494.124 576.657L460.924 575.724L461.724 582.791Z" fill="black"/>
<path d="M548.258 576.791L542.658 577.324L541.991 584.257C541.591 588.124 540.658 611.324 539.858 635.857C539.191 660.391 538.124 690.257 537.724 702.124L536.791 723.857H557.591H578.258L579.058 715.457C579.591 710.924 581.991 680.524 584.524 647.857C587.058 615.191 589.458 585.724 589.858 582.124L590.658 575.857L572.258 576.124C562.124 576.257 551.324 576.524 548.258 576.791Z" fill="black"/>
<path d="M99.8577 551.324C89.991 553.057 77.8577 555.19 72.9244 555.99C62.5243 557.857 62.1243 558.657 66.9243 567.857C71.3244 576.657 74.9243 578.657 86.2577 578.657C102.791 578.79 115.058 573.324 119.991 563.59C123.058 557.457 123.058 548.657 119.858 548.257C118.791 548.124 109.724 549.457 99.8577 551.324Z" fill="black"/>
<path d="M816.658 685.324C813.324 689.057 810.524 692.791 810.524 693.724C810.524 695.991 832.791 707.457 834.391 705.857C836.924 703.191 842.524 691.324 842.524 688.524C842.524 686.924 841.058 683.991 839.191 681.991C836.524 679.191 834.791 678.524 829.324 678.524C823.058 678.524 822.391 678.924 816.658 685.324Z" fill="black"/>
<path d="M421.857 865.59C419.191 869.857 418.124 875.857 419.591 879.724L420.657 882.924L425.591 878.657C431.324 873.457 432.657 869.99 430.391 865.724C428.257 861.724 424.524 861.59 421.857 865.59Z" fill="black"/>
<path d="M411.057 902.391C406.791 908.924 406.391 914.657 409.857 918.524C412.657 921.591 418.257 921.991 421.724 919.457C423.857 917.857 423.857 917.191 420.524 908.524C418.657 903.324 416.524 898.657 415.857 897.991C415.324 897.457 413.191 899.324 411.057 902.391Z" fill="black"/>
<path d="M547.458 866.124C546.924 867.057 549.191 881.59 554.658 914.257L556.391 923.99L560.391 923.057C572.391 920.524 577.191 914.524 577.458 901.59C577.724 885.057 572.124 872.257 562.258 867.057C558.524 865.057 548.391 864.524 547.458 866.124Z" fill="black"/>
</svg>
